<?xml version="1.0" standalone="no"?>
<!DOCTYPE svg PUBLIC "-//W3C//DTD SVG 20010904//EN"
 "http://www.w3.org/TR/2001/REC-SVG-20010904/DTD/svg10.dtd">
<svg version="1.0" xmlns="http://www.w3.org/2000/svg"
 width="960.000000pt" height="960.000000pt" viewBox="0 0 960.000000 960.000000"
 preserveAspectRatio="xMidYMid meet">

<g transform="translate(0.000000,960.000000) scale(0.100000,-0.100000)"
fill="#000000" stroke="none">
<path d="M0 4800 l0 -4800 4800 0 4800 0 0 4800 0 4800 -4800 0 -4800 0 0
-4800z m5270 4216 c588 -70 1148 -251 1636 -531 748 -430 1357 -1082 1725
-1850 518 -1080 556 -2331 104 -3436 -73 -177 -135 -295 -255 -482 -235 -364
-421 -597 -700 -878 -102 -102 -239 -231 -306 -286 -633 -522 -1370 -837
-2204 -940 -206 -25 -724 -25 -930 0 -834 103 -1571 418 -2204 940 -157 129
-461 436 -601 605 -209 253 -472 640 -568 836 -256 520 -407 1190 -407 1806 0
1519 818 2924 2144 3685 502 288 1121 484 1686 534 69 6 141 13 160 15 84 10
594 -4 720 -18z"/>
<path d="M4540 8929 c-942 -59 -1826 -442 -2491 -1077 -209 -200 -418 -457
-518 -636 -9 -17 -56 -89 -103 -161 -191 -291 -327 -560 -442 -879 -252 -693
-307 -1483 -155 -2213 159 -764 546 -1479 1105 -2037 645 -646 1450 -1038
2389 -1163 186 -25 774 -25 960 0 838 112 1560 431 2174 961 588 508 1034
1203 1246 1940 258 901 200 1873 -164 2724 -108 253 -206 434 -359 667 -47 72
-95 146 -105 165 -171 308 -580 732 -972 1005 -735 513 -1643 762 -2565 704z
m-1263 -1537 c202 -224 283 -404 283 -629 l0 -104 103 88 c56 49 160 136 231
194 72 57 180 153 242 212 62 59 114 104 117 100 10 -17 57 -183 81 -283 56
-239 61 -468 11 -620 -47 -147 -99 -236 -209 -364 -158 -182 -303 -439 -379
-671 -159 -485 -91 -922 195 -1251 135 -156 273 -224 584 -289 140 -29 288
-33 379 -10 203 52 344 192 371 368 9 58 21 77 48 77 38 0 50 -23 42 -88 -9
-80 -80 -218 -149 -289 -17 -18 -27 -36 -24 -40 9 -8 150 32 240 69 102 41
182 94 264 171 158 150 247 338 273 578 19 170 -17 398 -85 546 -40 88 -43
108 -14 123 31 17 45 7 77 -57 128 -253 148 -564 57 -863 -15 -47 -28 -94 -31
-105 -9 -36 95 86 171 200 115 171 190 348 232 545 28 132 25 518 -5 653 -50
227 -136 417 -271 599 -81 108 -222 256 -304 318 -51 38 -60 54 -52 81 8 24
39 33 65 19 53 -28 207 -169 277 -253 377 -452 497 -955 357 -1491 -52 -197
-141 -397 -248 -557 -70 -105 -157 -208 -176 -208 -8 -1 -41 -22 -74 -49 -192
-155 -309 -237 -411 -287 -138 -68 -236 -95 -335 -93 -57 1 -97 -6 -165 -26
-211 -65 -528 -37 -811 73 -280 108 -471 320 -579 643 -47 143 -66 259 -66
418 -2 386 153 786 463 1198 137 180 155 210 183 293 49 143 51 187 27 610 -9
170 -27 190 -115 127 -90 -66 -385 -328 -487 -434 -173 -180 -204 -270 -198
-568 l4 -179 -20 59 c-50 143 -136 242 -259 299 -93 42 -157 57 -407 95 -113
17 -216 33 -229 36 -22 5 -23 3 -18 -30 8 -53 67 -192 117 -281 83 -144 237
-285 385 -351 32 -13 94 -36 139 -49 81 -24 81 -24 34 -24 -58 -1 -175 21
-251 48 -187 66 -335 215 -430 435 -38 89 -113 353 -103 363 3 3 42 -5 88 -17
74 -20 518 -101 518 -95 0 2 -16 23 -37 47 -76 91 -121 231 -108 337 10 80 36
160 131 396 46 116 90 239 99 275 9 36 18 71 20 78 7 19 59 -24 142 -116z
m2302 -127 c32 -31 74 -78 91 -105 56 -87 91 -240 56 -240 -8 0 -16 -6 -19
-12 -2 -7 -14 6 -25 29 -17 33 -19 41 -7 37 20 -8 19 -2 -5 49 -39 83 -160
197 -210 197 -14 0 -13 -33 3 -50 10 -12 9 -12 -5 -1 -39 29 -5 151 41 151 11
0 47 -25 80 -55z m264 -15 c35 -70 46 -153 25 -178 -9 -9 -23 -35 -33 -57 -41
-95 -39 -93 -51 -34 -6 30 -14 65 -18 79 -6 21 -5 22 4 8 17 -27 30 -21 30 12
0 38 -21 90 -45 110 -15 13 -19 12 -30 -3 -12 -16 -14 -16 -29 7 -24 37 -20
51 22 85 26 22 46 30 67 28 26 -2 34 -10 58 -57z m-480 -90 c151 -47 291 -205
309 -350 3 -24 1 -25 -57 -25 -45 0 -74 7 -116 28 -72 35 -162 125 -195 195
-15 33 -37 60 -55 70 -24 14 -29 24 -29 54 0 54 36 61 143 28z m-69 -232 c20
-32 34 -58 32 -58 -8 0 -76 103 -76 114 0 12 2 10 44 -56z m-91 23 c13 -5 38
-31 55 -58 49 -76 122 -141 213 -188 l83 -43 -38 -7 c-69 -13 -150 1 -231 40
-77 37 -100 58 -32 30 20 -8 40 -15 44 -15 20 0 -144 136 -176 146 -28 8 -37
16 -39 38 -3 23 3 29 40 46 50 23 49 23 81 11z m-625 -129 c159 -185 222 -338
242 -587 6 -66 13 -128 16 -137 7 -24 36 -23 52 2 7 11 17 20 23 20 6 0 8 -9
4 -20 -8 -24 -2 -25 30 -4 42 27 29 -3 -25 -60 -29 -31 -50 -62 -50 -75 0 -57
55 -115 212 -220 58 -39 109 -79 112 -88 10 -24 -19 -59 -82 -101 -55 -36 -72
-50 -72 -63 0 -4 20 -33 45 -65 25 -31 45 -64 45 -73 0 -8 -14 -30 -31 -47
l-32 -33 22 -27 c29 -37 26 -70 -10 -112 -60 -68 -73 -141 -44 -238 33 -108 9
-202 -64 -251 -44 -30 -93 -30 -257 1 -179 34 -258 40 -342 27 -155 -24 -247
-85 -300 -199 -24 -51 -27 -69 -27 -167 0 -60 3 -130 8 -155 l7 -45 -19 43
c-11 23 -24 42 -29 42 -11 0 -83 153 -106 225 -69 216 -72 472 -10 714 58 222
162 425 356 691 179 248 289 440 324 570 39 140 17 318 -52 437 -51 87 -24 85
54 -5z m1751 -13 c73 -100 86 -239 34 -350 -36 -76 -78 -129 -103 -129 -23 0
-67 52 -94 110 -30 66 -30 226 1 292 58 126 109 150 162 77z m-2214 -97 c-64
-289 -181 -520 -340 -671 -110 -105 -129 -109 -63 -15 130 187 281 472 369
695 48 123 62 119 34 -9z m1137 -47 c84 -46 172 -67 259 -63 38 2 69 0 69 -4
0 -15 -77 -57 -134 -73 -95 -28 -207 -18 -293 26 -41 20 -69 41 -71 52 -2 10
8 36 22 58 34 50 63 51 148 4z m663 -360 c101 -26 195 -103 195 -158 0 -25 -7
-31 -57 -55 -50 -22 -72 -26 -158 -26 -79 -1 -107 3 -135 18 -55 29 -119 85
-136 118 -14 28 -14 31 3 50 54 60 174 82 288 53z m-3075 -192 c109 -84 260
-179 375 -235 83 -40 104 -54 86 -56 -86 -13 -314 106 -452 235 -57 54 -127
147 -88 117 8 -6 43 -34 79 -61z m3074 -413 c38 -71 48 -192 21 -255 -15 -35
-18 -38 -25 -20 -5 11 -9 31 -9 45 -1 31 -40 116 -81 174 -16 25 -30 49 -30
54 0 5 12 21 27 36 39 39 63 31 97 -34z m-187 1 c96 -69 143 -156 143 -263 0
-104 -29 -122 -113 -69 -83 53 -127 148 -127 272 0 54 4 70 18 78 26 16 36 13
79 -18z m349 -37 c10 -40 -2 -126 -26 -183 -21 -47 -85 -119 -97 -107 -3 3 2
26 11 52 18 52 21 138 7 197 -11 48 6 67 60 67 33 0 40 -4 45 -26z m-479 -86
c6 -7 16 -31 23 -53 21 -65 49 -114 92 -161 32 -35 37 -44 22 -44 -33 0 -118
46 -150 81 -60 66 -104 154 -89 179 9 14 91 12 102 -2z m-56 -171 c34 -42 94
-83 163 -111 l57 -23 -44 -13 c-84 -23 -239 35 -277 103 -14 27 -14 29 15 53
40 32 55 30 86 -9z m785 -112 c25 -38 14 -138 -22 -205 -55 -100 -165 -171
-207 -132 -17 15 -19 28 -15 97 7 118 52 191 153 244 52 27 71 26 91 -4z
m-509 -332 c103 -48 182 -191 124 -223 -11 -5 -44 -10 -74 -10 -69 0 -163 45
-212 102 -38 45 -71 119 -62 142 12 32 149 25 224 -11z m-112 -527 c61 -80 81
-196 50 -287 -17 -49 -57 -99 -81 -99 -12 0 -12 4 3 27 17 25 17 27 -1 37 -88
53 -106 69 -112 103 -12 64 2 159 30 208 35 59 72 62 111 11z m-1915 -1026
c-32 -26 -33 -29 -15 -36 150 -52 215 -115 215 -207 0 -62 -26 -112 -91 -177
-91 -89 -226 -142 -397 -155 l-90 -7 -36 -53 c-57 -82 -176 -192 -243 -223
-50 -23 -71 -27 -148 -27 -107 0 -149 17 -171 72 -30 70 26 133 117 133 56 0
109 -10 109 -20 0 -4 -20 -3 -44 3 -37 8 -49 7 -78 -10 -60 -35 -64 -109 -6
-139 23 -12 47 -15 88 -11 136 12 250 119 375 352 26 50 74 135 106 190 51 88
80 127 177 245 l23 27 -82 7 c-212 19 -446 -39 -575 -142 -117 -92 -126 -233
-19 -278 62 -25 146 19 186 98 23 45 34 45 24 -1 -21 -97 -160 -153 -255 -102
-109 57 -107 215 4 306 130 107 437 175 662 148 79 -10 91 -9 114 7 56 39 97
40 50 0z m2300 1 l-35 -29 25 -10 c150 -58 210 -118 210 -208 0 -56 -34 -116
-99 -176 -102 -94 -218 -139 -395 -154 l-86 -7 -51 -68 c-67 -91 -156 -171
-226 -205 -189 -89 -415 14 -304 138 29 32 32 33 110 33 49 0 85 -5 92 -12 10
-10 4 -10 -26 -2 -73 21 -135 -17 -135 -82 0 -57 37 -82 115 -77 106 7 204 72
289 192 24 33 83 133 131 221 97 180 145 254 218 338 27 32 46 61 42 65 -3 4
-73 6 -153 6 -122 -2 -163 -6 -243 -27 -213 -56 -341 -161 -341 -282 0 -147
183 -159 256 -17 24 45 25 46 25 17 2 -73 -77 -134 -172 -135 -113 0 -180 87
-156 201 17 79 108 164 219 205 152 55 384 85 525 67 76 -10 82 -9 120 13 22
13 49 24 60 24 16 0 13 -5 -15 -29z m-1112 -213 c6 -70 -81 -239 -192 -371
-52 -62 -67 -88 -77 -133 -11 -48 -10 -61 2 -83 35 -62 93 -27 162 98 48 87
62 81 18 -8 -54 -105 -124 -155 -194 -137 -27 6 -47 44 -47 87 l0 31 -32 -43
c-18 -23 -45 -51 -60 -62 -54 -40 -106 5 -94 82 6 37 6 37 -43 -27 -38 -49
-83 -76 -115 -68 -24 6 -46 43 -46 77 0 17 -8 12 -42 -25 -56 -61 -103 -71
-142 -33 -17 17 -26 37 -26 57 l0 31 -48 -52 c-45 -49 -51 -52 -105 -57 -53
-4 -58 -2 -88 27 -30 31 -31 35 -26 91 13 147 156 297 250 261 21 -8 27 -17
27 -41 0 -69 -65 -135 -157 -160 -26 -8 -51 -18 -55 -24 -12 -18 -9 -111 4
-124 19 -19 72 -14 109 11 46 31 92 111 130 226 18 53 34 102 37 109 3 8 -6
12 -27 12 -17 0 -31 5 -31 10 0 6 15 10 34 10 33 0 37 4 81 86 64 118 99 156
139 152 30 -3 31 -5 31 -48 -1 -29 -12 -70 -33 -114 -18 -37 -32 -70 -32 -72
0 -2 14 -4 30 -4 17 0 30 -4 30 -10 0 -5 -17 -10 -39 -10 -34 0 -41 -5 -66
-42 -15 -23 -48 -63 -73 -90 -37 -40 -47 -59 -59 -115 -18 -87 -12 -113 25
-113 40 0 91 58 141 157 62 126 118 178 208 198 55 11 136 -26 118 -55 -5 -8
-13 -5 -26 9 -38 41 -90 21 -167 -64 -83 -90 -130 -206 -97 -238 35 -36 95 22
177 171 43 78 66 97 105 87 23 -5 24 -7 10 -23 -33 -37 -87 -166 -87 -209 0
-56 17 -56 64 -2 44 52 86 135 132 264 48 134 130 290 172 326 23 21 42 29 60
27 23 -3 27 -8 30 -40z m2090 -10 c-70 -87 -167 -249 -217 -363 l-22 -50 53
51 c74 71 105 92 149 104 112 30 102 -92 -12 -150 -21 -11 -45 -20 -53 -20
-44 0 -46 -114 -3 -157 48 -48 106 -9 168 112 29 55 49 80 49 60 0 -18 -66
-132 -96 -165 -71 -79 -159 -76 -196 7 -34 77 -7 146 61 157 42 6 89 40 92 66
3 32 -2 40 -26 40 -71 0 -193 -112 -220 -202 -8 -29 -15 -67 -15 -85 0 -31 -2
-33 -36 -33 -35 0 -35 1 -29 33 4 17 13 47 21 65 18 43 12 40 -20 -11 -55 -86
-143 -114 -175 -55 -13 23 -14 34 -3 75 7 26 26 69 43 96 49 80 34 100 -38 47
-47 -34 -107 -110 -153 -192 -28 -50 -36 -58 -61 -58 -27 0 -29 2 -19 20 l11
20 -33 -20 c-42 -25 -73 -25 -98 0 -30 30 -25 77 21 197 22 59 38 115 36 125
-4 15 1 18 39 18 24 0 44 -2 44 -4 0 -2 -27 -66 -60 -142 -63 -146 -67 -163
-48 -182 38 -38 84 9 179 185 74 136 90 154 135 145 22 -4 22 -5 -12 -50 -20
-25 -47 -68 -61 -96 l-25 -51 64 61 c34 34 81 73 103 86 42 26 106 51 112 44
2 -2 -18 -46 -45 -98 -56 -106 -88 -198 -79 -223 12 -29 49 -13 87 37 19 26
91 154 160 284 144 272 175 314 227 314 l35 0 -34 -42z m-714 -134 c24 -9 19
-51 -8 -69 -31 -21 -56 -10 -56 26 0 36 29 56 64 43z m-674 -763 c0 -77 4
-111 12 -113 7 -3 2 -7 -10 -10 -21 -6 -22 -3 -22 52 0 46 -4 61 -17 69 -17
10 -17 10 0 11 13 0 16 6 12 25 -3 14 -7 36 -10 50 -4 20 -1 25 15 25 19 0 20
-6 20 -109z m-1850 76 c31 -16 37 -43 14 -68 -20 -22 -43 -26 -24 -4 17 20 3
54 -27 66 -46 17 -53 12 -53 -36 0 -44 1 -45 33 -45 39 0 97 -34 97 -57 0 -18
-28 -53 -43 -53 -5 0 -4 7 3 15 28 33 -15 85 -70 85 -17 0 -20 -7 -20 -50 0
-31 4 -50 12 -50 6 0 9 -2 7 -5 -3 -2 -15 -2 -27 2 -21 5 -22 11 -22 99 0 89
-1 95 -22 104 -17 6 -5 9 47 9 39 0 81 -5 95 -12z m1282 -17 c23 -29 23 -45
-2 -70 -26 -26 -49 -26 -25 0 26 29 7 66 -41 79 -20 6 -41 8 -46 5 -5 -3 -9
-27 -8 -53 4 -108 0 -141 -15 -141 -12 0 -15 18 -15 99 0 86 -2 100 -17 105
-10 3 20 4 66 2 74 -2 87 -6 103 -26z m-536 -40 c19 0 34 -4 34 -10 0 -5 -16
-10 -35 -10 l-35 0 0 -55 0 -55 38 -1 37 -1 -38 -10 c-53 -14 -67 0 -67 68 0
29 -5 56 -11 60 -8 4 -4 13 12 25 20 15 25 16 27 4 2 -10 16 -15 38 -15z
m1650 0 c19 0 34 -4 34 -10 0 -5 -16 -10 -35 -10 l-35 0 0 -51 c0 -38 5 -55
18 -65 16 -13 16 -13 -3 -14 -33 0 -45 20 -45 76 0 29 -5 56 -11 60 -8 4 -4
13 12 25 20 15 25 16 27 4 2 -10 16 -15 38 -15z m-2198 -16 c12 -8 22 -19 22
-25 0 -16 -25 -10 -37 10 -7 11 -23 21 -35 24 -22 4 -22 4 2 6 14 0 36 -6 48
-15z m171 7 c10 -7 14 -25 12 -59 -1 -38 2 -53 15 -60 12 -7 13 -11 4 -17 -22
-14 -44 22 -45 73 0 44 -2 47 -29 50 -19 2 -32 -2 -38 -12 -10 -18 -28 -21
-28 -6 0 12 56 39 80 39 8 1 21 -3 29 -8z m121 -56 l0 -65 33 -1 c27 0 29 -2
12 -9 -51 -22 -75 2 -75 75 0 43 -4 54 -17 58 -10 3 -3 5 15 6 l32 1 0 -65z
m122 -6 c3 -77 1 -84 -19 -68 -8 7 -13 32 -13 65 0 40 -4 56 -17 63 -15 9 -13
10 14 11 l31 0 4 -71z m256 64 c-23 -6 -23 -4 8 -65 l26 -52 19 34 c21 41 24
76 7 83 -7 3 1 6 18 6 l31 1 -40 -77 c-46 -87 -39 -88 -102 20 l-34 57 42 -1
c23 -1 34 -3 25 -6z m515 -5 c4 -10 7 -10 18 0 25 23 70 8 54 -18 -4 -6 -12
-7 -22 -1 -9 4 -24 6 -34 4 -16 -4 -19 -15 -19 -59 0 -41 -4 -54 -15 -54 -12
0 -15 14 -15 64 0 53 -3 65 -17 69 -10 3 -4 5 14 6 17 0 33 -5 36 -11z m245
-4 c29 -20 31 -83 2 -109 -19 -17 -19 -17 -8 12 21 57 -43 126 -90 97 -40 -25
-21 -115 27 -127 9 -2 3 -3 -13 -1 -102 14 -81 144 23 144 20 0 47 -7 59 -16z
m133 6 c-40 -9 -51 -24 -51 -67 0 -36 20 -52 67 -54 l28 -1 -32 -10 c-41 -14
-78 8 -88 51 -11 52 25 90 85 89 20 0 18 -2 -9 -8z m197 -42 c-7 -69 -3 -78
35 -79 l32 -1 -32 -10 c-48 -16 -63 1 -63 69 0 46 -3 55 -22 63 -20 7 -17 9
16 9 l39 1 -5 -52z m119 -22 c-2 -58 -5 -72 -14 -64 -8 6 -13 33 -13 65 0 46
-3 55 -22 63 -20 8 -18 9 14 9 l36 1 -1 -74z m184 54 c13 -10 19 -19 12 -20
-6 0 -18 7 -27 15 -33 33 -96 8 -96 -39 0 -37 24 -59 71 -66 l44 -7 -38 -8
c-66 -13 -109 35 -93 101 11 44 87 58 127 24z m315 6 c10 -8 15 -18 11 -23 -5
-4 -13 0 -18 10 -10 17 -35 22 -63 11 -30 -12 -16 -32 34 -49 41 -14 50 -21
50 -40 0 -13 -5 -27 -11 -30 -6 -4 -9 0 -7 10 3 18 -2 22 -64 49 -26 10 -38
22 -38 35 0 38 67 55 106 27z m-2466 -16 c-10 -18 -7 -20 27 -22 l38 -1 -37
-4 c-73 -8 -38 -69 42 -75 l45 -4 -38 -8 c-48 -11 -93 7 -105 42 -10 29 1 71
21 84 18 11 19 10 7 -12z m188 -61 c-23 -13 -23 -35 -2 -43 24 -9 10 -19 -15
-11 -12 3 -21 12 -21 20 0 17 27 45 43 45 7 0 4 -5 -5 -11z m2187 -47 c-8 -8
-25 10 -25 26 0 13 2 13 14 -4 8 -10 13 -21 11 -22z m-58 2 c-3 -3 -12 -4 -19
-1 -8 3 -5 6 6 6 11 1 17 -2 13 -5z m116 -11 c-7 -2 -19 -2 -25 0 -7 3 -2 5
12 5 14 0 19 -2 13 -5z m-1668 -43 c-9 -16 -20 -30 -24 -30 -5 0 -17 -3 -27
-7 -10 -3 0 10 22 30 21 20 40 37 42 37 1 0 -4 -13 -13 -30z"/>
<path d="M3127 7383 c-3 -5 -8 -29 -11 -55 -4 -26 -32 -117 -61 -203 -122
-347 -134 -509 -49 -665 30 -56 85 -110 111 -110 40 0 166 -73 219 -128 l56
-56 -7 44 c-10 72 18 200 63 288 30 60 40 92 44 146 6 71 -14 308 -30 361 -32
103 -130 268 -208 348 -31 31 -43 37 -80 37 -23 0 -45 -3 -47 -7z m169 -459
c39 -116 54 -227 43 -319 -9 -69 -41 -154 -68 -179 -15 -14 -16 -7 -8 97 15
201 1 416 -38 571 -11 45 39 -74 71 -170z"/>
<path d="M3676 3272 c-29 -48 -89 -150 -133 -227 -43 -77 -87 -152 -97 -167
l-18 -28 33 0 c59 0 200 39 263 73 79 42 168 131 191 191 40 106 -18 198 -147
234 l-37 10 -55 -86z"/>
<path d="M6001 3317 c-16 -23 -79 -130 -141 -237 -61 -107 -116 -199 -121
-204 -30 -32 25 -34 137 -6 108 28 174 62 245 128 140 129 140 256 0 327 -77
39 -88 38 -120 -8z"/>
<path d="M4912 3158 c-51 -75 -179 -348 -162 -348 16 0 114 143 162 236 65
129 66 207 0 112z"/>
<path d="M4294 3138 c-24 -29 -46 -73 -75 -145 -8 -21 -5 -23 20 -23 25 0 31
8 64 78 53 112 49 157 -9 90z"/>
<path d="M4179 2903 c-36 -82 -40 -95 -29 -91 11 4 100 119 100 131 0 4 -11 7
-25 7 -21 0 -30 -9 -46 -47z"/>
<path d="M3961 2884 c-39 -35 -107 -131 -99 -139 2 -3 20 0 39 5 48 14 115 73
129 115 21 64 -10 73 -69 19z"/>
</g>
</svg>
